<?xml version="1.0" encoding="UTF-8"?>
<svg version="1.1" xmlns="http://www.w3.org/2000/svg" width="384" height="418">
<path d="M0 0 C1.35904597 -0.00679667 1.35904597 -0.00679667 2.74554741 -0.01373065 C5.776228 -0.02637333 8.80672885 -0.02475436 11.83743286 -0.02310181 C14.01250438 -0.02908709 16.18757378 -0.03589263 18.36264038 -0.04345703 C24.26760395 -0.06112313 30.17250956 -0.06581264 36.07749701 -0.0670886 C39.76716687 -0.06851029 43.45682199 -0.07278019 47.14648819 -0.07808304 C60.01971625 -0.09658455 72.89290289 -0.1047534 85.7661438 -0.10317993 C97.76427846 -0.10197814 109.76219235 -0.12308756 121.76028907 -0.15466726 C132.06364312 -0.18081956 142.36693841 -0.19154768 152.6703254 -0.19026911 C158.82307577 -0.18975922 164.97566633 -0.19545777 171.12838364 -0.21662521 C176.9150582 -0.23599007 182.70142019 -0.23614382 188.48810577 -0.22159195 C190.61010571 -0.21950067 192.73212512 -0.22422367 194.85409164 -0.23631287 C197.75465716 -0.25176576 200.65414493 -0.24245662 203.5546875 -0.22705078 C204.80928011 -0.24248147 204.80928011 -0.24248147 206.08921802 -0.25822389 C211.73808173 -0.19208365 216.22651194 0.99109034 220.90432739 4.26742554 C223.94413026 8.54214832 224.69335451 12.09491447 223.90432739 17.26742554 C220.39120434 23.54674555 215.73519213 29.20225889 211.27932739 34.82992554 C206.75382186 40.59444369 202.2795837 46.3880135 197.90432739 52.26742554 C193.08171743 58.73892186 188.153896 65.12213626 183.18777466 71.48397827 C179.21221567 76.57901269 175.26397661 81.69366484 171.34182739 86.82992554 C170.54228638 87.87696655 170.54228638 87.87696655 169.72659302 88.94515991 C168.11858608 91.05213628 166.51130953 93.15966747 164.90432739 95.26742554 C162.75947122 98.08067268 160.61379105 100.89328635 158.46682739 103.70492554 C157.93670044 104.39932739 157.40657349 105.09372925 156.86038208 105.80917358 C152.21778446 111.87967081 147.52028409 117.90671215 142.80545044 123.92123413 C138.86834982 128.96308507 135.12448568 134.08723551 131.55276489 139.39633179 C129.62338597 141.58631403 128.78113277 142.00379811 125.90432739 142.26742554 C122.91630687 140.35177458 120.56841098 137.67249403 118.09182739 135.14242554 C117.38606567 134.46437866 116.68030396 133.78633179 115.95315552 133.08773804 C115.29122192 132.42258179 114.62928833 131.75742554 113.94729614 131.07211304 C113.33910034 130.4635144 112.73090454 129.85491577 112.10427856 129.22787476 C110.90432739 127.26742554 110.90432739 127.26742554 111.07962036 124.72299194 C112.26916193 121.18113017 114.49000066 118.6020645 116.84182739 115.76742554 C117.85808339 114.50882019 118.87369606 113.24969514 119.88870239 111.99008179 C120.39981567 111.36118042 120.91092896 110.73227905 121.43753052 110.08432007 C123.53171799 107.49028825 125.56353141 104.85067897 127.59182739 102.20492554 C127.98644165 101.69091187 128.38105591 101.17689819 128.78762817 100.64730835 C134.16695739 93.63404163 139.51452471 86.59641247 144.86917114 79.56430054 C148.50128744 74.7951514 152.13803753 70.0295738 155.77932739 65.26742554 C156.31074341 64.57237915 156.84215942 63.87733276 157.38967896 63.16122437 C160.16962754 59.52760785 162.95706823 55.8999592 165.75271606 52.27841187 C170.02681797 46.73918267 174.2600542 41.17043176 178.46682739 35.57992554 C178.99220093 34.88375122 179.51757446 34.1875769 180.05886841 33.4703064 C180.54540894 32.82198853 181.03194946 32.17367065 181.53323364 31.50570679 C181.96708374 30.92860962 182.40093384 30.35151245 182.84793091 29.75692749 C183.98381439 28.23565631 183.98381439 28.23565631 184.90432739 26.26742554 C90.85432739 26.76242554 90.85432739 26.76242554 -5.09567261 27.26742554 C-5.75567261 28.58742554 -6.41567261 29.90742554 -7.09567261 31.26742554 C-8.9564056 33.40204488 -10.83373407 35.46784054 -12.78317261 37.51742554 C-13.8815291 38.68994706 -14.97918985 39.86312073 -16.07614136 41.03695679 C-16.60256226 41.59850464 -17.12898315 42.16005249 -17.6713562 42.73861694 C-21.52180564 46.87154707 -25.16999066 51.18080079 -28.83395386 55.47836304 C-29.85850353 56.67904595 -30.88324907 57.87956175 -31.90817261 59.07992554 C-32.4254895 59.68610718 -32.9428064 60.29228882 -33.47579956 60.9168396 C-36.6806949 64.65813374 -39.94776539 68.32857937 -43.28317261 71.95492554 C-46.47304105 75.42878863 -49.51616155 78.96652579 -52.47067261 82.64242554 C-56.33721445 87.43803044 -60.44419244 91.93621221 -64.65158081 96.42880249 C-68.56963797 100.63620845 -72.20673091 105.01892816 -75.80270386 109.50570679 C-79.20928216 113.60868952 -82.85610728 117.4699909 -86.51754761 121.34555054 C-89.27096414 124.46608928 -91.67678126 127.88097765 -94.09567261 131.26742554 C-38.98567261 186.37742554 16.12432739 241.48742554 72.90432739 298.26742554 C76.9671648 296.23600683 79.28175508 293.96108742 82.21682739 290.64242554 C82.94313354 289.83490845 82.94313354 289.83490845 83.68411255 289.01107788 C85.09757621 287.43569897 86.50226426 285.85295067 87.90432739 284.26742554 C88.59655396 283.48883179 89.28878052 282.71023804 90.00198364 281.90805054 C91.1415882 280.61566383 92.27381799 279.31671426 93.39651489 278.00961304 C94.40052057 276.8495443 95.42689513 275.70846004 96.47463989 274.58773804 C98.07768264 272.8846093 98.07768264 272.8846093 99.90432739 270.26742554 C99.58706444 266.86592229 98.1995712 265.1918198 95.82530212 262.83436584 C95.16788025 262.17426514 94.51045837 261.51416443 93.83311462 260.83406067 C92.74458443 259.76406578 92.74458443 259.76406578 91.63406372 258.67245483 C90.87302338 257.9125827 90.11198303 257.15271057 89.32788086 256.36981201 C86.80426334 253.85339554 84.27029656 251.34766458 81.73635864 248.84164429 C79.98023695 247.09365935 78.22485026 245.34493571 76.47016907 243.59550476 C72.3142058 239.45493299 68.15198837 235.32073832 63.9863345 231.18991739 C56.10011687 223.3691818 48.22789762 215.53437087 40.35703087 207.69819069 C37.77517705 205.13025346 35.18951558 202.5662001 32.60325623 200.00270081 C31.00927209 198.41874766 29.41537028 196.83471166 27.82156372 195.25057983 C27.10599808 194.5433226 26.39043243 193.83606537 25.65318298 193.1073761 C21.98209724 189.45247661 18.48240411 185.73005979 15.1644125 181.75047588 C13.21003656 179.4502837 11.06470276 177.37400748 8.90432739 175.26742554 C7.52604611 173.90173746 6.14889137 172.53491206 4.77249146 171.16732788 C3.99528748 170.39657928 3.2180835 169.62583069 2.41732788 168.83172607 C-1.08552573 165.35553959 -4.58318326 161.87414545 -8.08053589 158.39242554 C-9.92935195 156.55373014 -11.77994988 154.71682475 -13.6322937 152.88168335 C-16.30706536 150.23107704 -18.97540882 147.57414687 -21.64254761 144.91586304 C-22.47477844 144.09395477 -23.30700928 143.27204651 -24.16445923 142.42523193 C-24.92905457 141.66078766 -25.6936499 140.89634338 -26.48141479 140.10873413 C-27.15694397 139.43764618 -27.83247314 138.76655823 -28.5284729 138.07513428 C-31.34406822 134.8274459 -31.26084615 131.55550007 -31.42379761 127.40023804 C-30.54630978 121.69656717 -25.71618913 117.32078109 -22.03317261 113.14242554 C-21.45535034 112.48081421 -20.87752808 111.81920288 -20.28219604 111.13754272 C-16.84996343 107.22013532 -13.36745506 103.35434394 -9.84567261 99.51742554 C-6.69662924 96.08532209 -3.69728869 92.58831528 -0.78317261 88.95492554 C2.90498182 84.39742042 6.75356175 80.02259805 10.71682739 75.70492554 C11.54404297 74.79263184 11.54404297 74.79263184 12.38796997 73.86190796 C16.07774126 69.88358269 18.62548568 67.57419269 24.15432739 66.82992554 C28.89069604 67.38250188 32.28600108 69.16600298 35.90432739 72.26742554 C35.90432739 72.92742554 35.90432739 73.58742554 35.90432739 74.26742554 C36.56432739 74.26742554 37.22432739 74.26742554 37.90432739 74.26742554 C39.38479614 75.80648804 39.38479614 75.80648804 41.09182739 77.89242554 C43.38791429 80.6020933 45.65450543 83.02039269 48.40432739 85.26742554 C50.88915042 87.30542416 52.98684736 89.4288494 55.05813599 91.88388062 C59.14237581 96.60884491 63.51460047 101.00388263 67.94338989 105.40414429 C68.78727264 106.24661209 69.6311554 107.0890799 70.50061035 107.95707703 C73.17449011 110.62540457 75.85183569 113.29022286 78.52932739 115.95492554 C80.33424727 117.75482275 82.13893693 119.55495085 83.94338989 121.35531616 C87.96040722 125.36245127 91.97952704 129.36746141 96.00114441 133.36997986 C97.60462084 134.96862248 99.20282817 136.57224847 100.79910278 138.17807007 C103.76184425 141.11847845 106.93730896 143.78985516 110.11135864 146.49789429 C110.70303833 147.0818396 111.29471802 147.66578491 111.90432739 148.26742554 C111.90432739 148.92742554 111.90432739 149.58742554 111.90432739 150.26742554 C112.48182739 150.51492554 113.05932739 150.76242554 113.65432739 151.01742554 C116.23372719 152.45042542 117.96554331 154.0516723 119.90432739 156.26742554 C119.90432739 156.92742554 119.90432739 157.58742554 119.90432739 158.26742554 C120.4779495 158.51628572 121.05157162 158.76514591 121.64257622 159.02154732 C124.24311108 160.45404342 125.99159243 162.10293445 128.09234619 164.20147705 C129.33313934 165.43381073 129.33313934 165.43381073 130.59899902 166.69104004 C131.49784821 167.59393768 132.39669739 168.49683533 133.32278442 169.42709351 C134.28522047 170.38681864 135.24808129 171.34611796 136.21133423 172.30502319 C138.82328299 174.90785765 141.42886969 177.51697499 144.03309107 180.1275382 C146.75978993 182.859302 149.49136676 185.58618106 152.22216797 188.31384277 C156.80716383 192.89520043 161.38792755 197.480758 165.96633911 202.06869507 C171.25899629 207.3722365 176.55881995 212.66853448 181.86242402 217.96112716 C186.41650481 222.50613093 190.96667505 227.05502208 195.51360214 231.60718262 C198.2289796 234.3256775 200.94568874 237.04280453 203.66592789 239.75643539 C206.22313911 242.30786778 208.77540522 244.86414608 211.32394409 247.42424011 C212.70620494 248.8104054 214.09339166 250.19165322 215.48071289 251.57275391 C216.30226868 252.39994934 217.12382446 253.22714478 217.97027588 254.07940674 C218.68592272 254.79580763 219.40156956 255.51220852 220.13890266 256.25031853 C223.01854362 259.54048654 224.20283027 262.28208935 224.27932739 266.64242554 C224.30768677 267.37203491 224.33604614 268.10164429 224.36526489 268.85336304 C223.23069603 274.79542708 218.25603219 279.26110782 214.21682739 283.51742554 C213.14602632 284.6614997 212.07571835 285.80603558 211.00588989 286.95101929 C210.21746704 287.79189087 210.21746704 287.79189087 209.41311646 288.64974976 C204.70325092 293.69951821 200.11408414 298.86193698 195.59182739 304.07992554 C191.91990757 308.2996376 188.11059927 312.38845664 184.30740356 316.48934937 C181.63061484 319.38071705 178.98136649 322.28614501 176.40432739 325.26742554 C171.8812268 330.4931437 167.14719005 335.52675735 162.45071411 340.59603882 C155.20416438 348.42835323 148.02901447 356.32410296 140.90432739 364.26742554 C139.42560062 365.91365411 137.94642948 367.55948364 136.46682739 369.20492554 C135.73206177 370.02219116 134.99729614 370.83945679 134.24026489 371.68148804 C130.90024413 375.37896921 127.53418709 379.05258654 124.16604614 382.72445679 C121.87009755 385.19548129 121.87009755 385.19548129 120.11135864 387.90414429 C116.20765174 392.08421982 111.02982771 393.39036491 105.4568243 393.64494896 C103.81244768 393.66126582 102.1678581 393.6614834 100.52345276 393.64837646 C99.61092414 393.65305644 98.69839553 393.65773641 97.75821453 393.6625582 C94.71749444 393.67447102 91.67722813 393.66506547 88.63650513 393.65560913 C86.44966368 393.65967645 84.26282428 393.66501922 82.07598877 393.67153931 C76.14844419 393.68519878 70.22105652 393.67992003 64.29350924 393.67040205 C58.08679711 393.66279938 51.88009829 393.66985267 45.67338562 393.67456055 C34.58482928 393.68036518 23.49634228 393.67105147 12.40779705 393.65578254 C2.36143919 393.64237687 -7.68481467 393.64471133 -17.73117065 393.65853882 C-29.41015461 393.67454935 -41.08907353 393.68056295 -52.76806682 393.67170203 C-58.94586778 393.66702669 -65.12359716 393.66639699 -71.30139351 393.67631149 C-77.10858284 393.68498056 -82.91557585 393.67896011 -88.72274399 393.66162872 C-90.85322049 393.65766378 -92.98371352 393.65879804 -95.11418343 393.66541672 C-98.0236055 393.67362171 -100.93239949 393.663323 -103.84178162 393.64837646 C-104.68361624 393.65506863 -105.52545086 393.6617608 -106.39279562 393.66865575 C-111.69608573 393.6158575 -115.39817188 392.7859196 -120.09567261 390.26742554 C-122.96515871 387.03005661 -123.99602381 385.06461596 -124.53317261 380.76742554 C-123.6232119 373.48773988 -119.18129546 368.66568262 -114.59567261 363.26742554 C-113.33004804 361.75549335 -112.06574183 360.24245668 -110.80270386 358.72836304 C-110.17573608 357.9778064 -109.54876831 357.22724976 -108.90280151 356.45394897 C-106.30531342 353.31113577 -103.78734964 350.10976625 -101.28317261 346.89242554 C-97.42931914 341.95212074 -93.5131037 337.07214978 -89.53317261 332.23226929 C-82.01162762 323.08346697 -74.54965656 313.89222583 -67.26022339 304.55722046 C-63.22047165 299.39628808 -59.0844163 294.31668716 -54.94039917 289.23934937 C-51.36181554 284.84701583 -47.83510202 280.41833569 -44.34567261 275.95492554 C-43.02265651 274.26800236 -41.69888604 272.58167658 -40.3744812 270.89584351 C-39.51954758 269.80718232 -38.66571168 268.71765822 -37.81295776 267.62728882 C-36.6023665 266.0846175 -35.38049815 264.55081598 -34.15817261 263.01742554 C-33.46852417 262.14601929 -32.77887573 261.27461304 -32.06832886 260.37680054 C-30.15208058 258.32774297 -28.67468585 257.30595436 -26.09567261 256.26742554 C-25.59938354 256.77531616 -25.10309448 257.28320679 -24.59176636 257.80648804 C-20.69949962 261.75045472 -16.78275687 265.49341094 -12.44332886 268.94320679 C-11.09567261 270.26742554 -11.09567261 270.26742554 -10.09567261 273.26742554 C-11.66456087 275.59204032 -13.24750048 277.68213411 -15.03317261 279.82992554 C-15.79706299 280.77364014 -15.79706299 280.77364014 -16.5763855 281.73641968 C-17.60470268 283.00566521 -18.63714104 284.27158359 -19.67379761 285.5340271 C-21.48305676 287.73968301 -23.25842425 289.97144985 -25.03317261 292.20492554 C-26.38682056 293.89284166 -27.74104359 295.58029667 -29.09567261 297.26742554 C-34.94245385 304.55338148 -40.77852935 311.84587471 -46.53317261 319.20492554 C-51.03480484 324.95905106 -55.6298451 330.63264403 -60.24850464 336.2930603 C-64.30788196 341.27634175 -68.30231928 346.30657534 -72.25900269 351.37167358 C-75.70202496 355.77866529 -79.20173908 360.13720259 -82.73239136 364.47445679 C-84.19654913 366.02469818 -84.19654913 366.02469818 -84.09567261 367.26742554 C-59.81758532 367.38420162 -35.53954008 367.47238577 -11.26122856 367.5264864 C0.01150015 367.5522734 11.2840544 367.5874336 22.55667114 367.6446228 C32.38132654 367.69444235 42.2058556 367.72671294 52.03063381 367.73786801 C57.23335144 367.74438918 62.43570763 367.75972636 67.63830948 367.79607582 C72.53521142 367.83001224 77.43160301 367.84048319 82.32861137 367.83296394 C84.12573329 367.83433954 85.92287227 367.84428609 87.7198925 367.86345291 C90.1750734 367.88835519 92.62833114 367.88234237 95.08355713 367.86869812 C95.79368741 367.88326233 96.50381769 367.89782653 97.23546708 367.91283208 C102.84257436 367.82868217 105.06701888 366.04103189 108.90432739 362.26742554 C109.96174838 361.15526746 110.98734765 360.01130361 111.96682739 358.82992554 C115.33944953 354.87141359 118.85405181 351.06569832 122.40432739 347.26742554 C126.35734239 343.03125919 130.25527654 338.76769042 134.04104614 334.38070679 C137.08482212 330.92854158 140.22721685 327.56766601 143.35501099 324.19174194 C147.92058154 319.26058301 152.42097166 314.27343112 156.90432739 309.26742554 C158.40389358 307.60036854 159.90389793 305.93370558 161.40432739 304.26742554 C162.51807739 303.02992554 162.51807739 303.02992554 163.65432739 301.76742554 C168.90432739 295.9340922 174.15432739 290.10075887 179.40432739 284.26742554 C180.50260864 283.04346069 180.50260864 283.04346069 181.62307739 281.79476929 C183.21761536 280.0282178 184.8226748 278.27113198 186.43557739 276.52133179 C187.25026489 275.63316772 188.06495239 274.74500366 188.90432739 273.82992554 C190.01807739 272.62529663 190.01807739 272.62529663 191.15432739 271.39633179 C193.09376144 269.29601992 193.09376144 269.29601992 193.90432739 266.26742554 C193.3729482 265.73604634 192.841569 265.20466715 192.29408741 264.65718555 C158.1641674 230.52726555 124.0342474 196.39734554 89.90432739 162.26742554 C89.0227959 161.38661914 88.1412644 160.50581274 87.23301983 159.59831524 C85.84833828 158.21232716 84.46767028 156.82228049 83.09573364 155.42367554 C80.45086026 152.7344038 77.8367036 150.21248121 74.90432739 147.82992554 C71.70803213 145.09975667 69.10699181 142.15890633 66.41995239 138.93930054 C64.99041805 137.15951385 64.99041805 137.15951385 62.90432739 136.26742554 C62.90432739 135.60742554 62.90432739 134.94742554 62.90432739 134.26742554 C62.34229614 134.04441772 61.78026489 133.82140991 61.20120239 133.59164429 C58.21221282 131.8684003 56.41113472 129.68531617 54.15432739 127.07992554 C50.59559137 123.03731187 46.9001573 119.41181401 42.77542114 115.95101929 C40.11573706 113.55785887 37.88278872 110.85825552 35.58010864 108.12680054 C33.97782637 106.34897685 32.33615035 104.88087942 30.46682739 103.39242554 C29.62120239 102.69117554 28.77557739 101.98992554 27.90432739 101.26742554 C27.90432739 100.60742554 27.90432739 99.94742554 27.90432739 99.26742554 C23.39024719 99.73928061 21.683403 101.09437064 18.77932739 104.51742554 C18.00975708 105.41461304 17.24018677 106.31180054 16.44729614 107.23617554 C15.18852661 108.73664429 15.18852661 108.73664429 13.90432739 110.26742554 C12.9435204 111.38324405 11.98123665 112.49779236 11.01760864 113.61117554 C10.04158509 114.74593627 9.06631364 115.88134436 8.09182739 117.01742554 C7.63598267 117.54755249 7.18013794 118.07767944 6.71047974 118.62387085 C3.82460314 122.03164999 1.31200046 125.5184148 -1.09567261 129.26742554 C-0.30161011 130.03828491 0.49245239 130.80914429 1.31057739 131.60336304 C2.3420878 132.61611871 3.37332367 133.62915406 4.40432739 134.64242554 C4.92897583 135.15031616 5.45362427 135.65820679 5.99417114 136.18148804 C7.33585921 137.50575158 8.62428554 138.88348419 9.90432739 140.26742554 C9.90432739 140.92742554 9.90432739 141.58742554 9.90432739 142.26742554 C10.56432739 142.26742554 11.22432739 142.26742554 11.90432739 142.26742554 C11.90432739 142.92742554 11.90432739 143.58742554 11.90432739 144.26742554 C12.56432739 144.26742554 13.22432739 144.26742554 13.90432739 144.26742554 C13.90432739 144.92742554 13.90432739 145.58742554 13.90432739 146.26742554 C14.44382019 146.46921921 14.98331299 146.67101288 15.53915405 146.87892151 C18.88167053 148.84118682 21.18834497 151.62478375 23.74710083 154.48348999 C29.79308079 161.0915128 36.02496159 167.48641088 42.36624146 173.81112671 C42.83867704 174.2823658 43.31111262 174.75360488 43.79786444 175.23912394 C46.29240579 177.72644777 48.78917049 180.21152297 51.28742218 182.69511986 C54.48488114 185.87396338 57.67770817 189.05743376 60.86984253 192.24162292 C69.93430454 201.28216095 79.00497321 210.31645738 88.07962036 219.34677124 C93.11986921 224.36247702 98.15651915 229.38176906 103.18933845 234.40492994 C106.3609158 237.56998301 109.53693391 240.73048863 112.71637106 243.88764513 C115.14663855 246.30344014 117.57038181 248.72574752 119.99514771 251.14706421 C120.87298416 252.01613907 121.75082062 252.88521393 122.65525818 253.78062439 C123.45394821 254.58061859 124.25263824 255.38061279 125.07553101 256.20484924 C125.77081532 256.89699115 126.46609962 257.58913305 127.18245316 258.30224895 C130.57034368 262.16885139 131.61604373 265.72156235 131.45120239 270.79867554 C130.29970435 275.9968667 126.44364996 279.4756622 122.90432739 283.26742554 C121.77012471 284.49651091 120.63601624 285.72568323 119.50198364 286.95492554 C117.06801476 289.58033386 114.61984472 292.19157944 112.16213989 294.79476929 C109.25384693 297.8812383 106.44001941 301.03354545 103.67385864 304.24789429 C100.82969449 307.49388295 97.89221792 310.65478655 94.96585083 313.82650757 C91.70763538 317.36583724 88.535385 320.96450536 85.43948364 324.64633179 C82.71112193 327.52742622 80.48841397 329.09893902 76.65432739 330.20492554 C70.27257321 330.31128811 65.70374685 327.23335534 61.10716724 322.9624567 C59.76277814 321.63471041 58.42913237 320.29602783 57.10447693 318.94859314 C56.36204638 318.20958029 55.61961583 317.47056744 54.85468739 316.70916027 C52.3802755 314.24131363 49.92039172 311.75948731 47.4602356 309.2774353 C45.68479909 307.50086999 43.90848029 305.72518603 42.13134766 303.95031738 C38.31186691 300.13174634 34.49858731 296.30714927 30.69085121 292.47686958 C25.18016133 286.9335778 19.65837038 281.40145298 14.13386621 275.87193262 C5.16270535 266.89202639 -3.79949711 257.9032346 -12.756073 248.90878296 C-21.44150195 240.18666353 -30.13110061 231.46873356 -38.8263855 222.75643921 C-39.36210289 222.21967092 -39.89782029 221.68290263 -40.44977155 221.12986863 C-43.13819817 218.43622048 -45.82670808 215.74265547 -48.5152601 213.04913247 C-67.04443593 194.48552919 -85.56474911 175.9131237 -104.07594299 157.33158875 C-105.24672802 156.15636615 -105.24672802 156.15636615 -106.44116527 154.95740169 C-107.87757589 153.51549609 -109.31393486 152.07353904 -110.75022906 150.63151747 C-116.7900694 144.53481563 -116.7900694 144.53481563 -122.90817261 138.51742554 C-124.84262093 134.85215503 -124.706981 131.31201247 -124.09567261 127.26742554 C-121.10716318 121.16047149 -115.6627202 116.25676863 -111.09567261 111.26742554 C-107.79926566 107.56645956 -104.56078887 103.81643175 -101.34567261 100.04476929 C-96.60487938 94.48620074 -91.85481044 88.9580458 -86.90817261 83.57992554 C-83.71830416 80.10606245 -80.67518366 76.56832529 -77.72067261 72.89242554 C-73.33223133 67.45355949 -68.63120849 62.36013649 -63.86911011 57.25180054 C-59.5533831 52.62183555 -55.43262718 47.83326372 -51.32223511 43.02133179 C-50.28850101 41.81159376 -49.25464346 40.60196121 -48.22067261 39.39242554 C-47.70222778 38.78584106 -47.18378296 38.17925659 -46.64962769 37.55429077 C-42.8651547 33.13758958 -39.00835261 28.79351835 -35.09957886 24.48617554 C-33.28255279 22.47434161 -31.49622869 20.4408212 -29.72067261 18.39242554 C-29.16766479 17.76336304 -28.61465698 17.13430054 -28.04489136 16.48617554 C-26.96533705 15.25734418 -25.88811837 14.02640507 -24.82077026 12.78695679 C-23.40301294 11.1450815 -21.96927373 9.51826432 -20.53317261 7.89242554 C-20.08602905 7.36793823 -19.6388855 6.84345093 -19.17819214 6.30307007 C-13.67419245 0.13947524 -7.74582501 -0.02853091 0 0 Z " fill="#0DE4FC" transform="translate(143.09567260742188,13.732574462890625)"/>
<path d="M0 0 C0 0.99 0 1.98 0 3 C-6.32487729 7.88740518 -11.13635162 8.14783797 -18.91331482 8.13371277 C-19.82383687 8.13597833 -20.73435891 8.13824388 -21.67247254 8.14057809 C-24.7301475 8.14691929 -27.78777816 8.14608865 -30.84545898 8.14526367 C-33.03495338 8.14825506 -35.22444726 8.15165754 -37.41394043 8.15544128 C-43.36633161 8.16428687 -49.31870841 8.16661961 -55.27110553 8.16725707 C-60.23652234 8.16820574 -65.20193579 8.1718835 -70.16735131 8.17542917 C-81.2100115 8.18311012 -92.25266498 8.18609759 -103.29532766 8.18542381 C-103.95785244 8.18538386 -104.62037722 8.1853439 -105.30297852 8.18530273 C-105.96631205 8.18526185 -106.62964559 8.18522097 -107.31308014 8.18517885 C-118.06652981 8.18477229 -128.81994449 8.19434481 -139.57338404 8.2084411 C-150.61488881 8.22280084 -161.65637565 8.22952833 -172.69788986 8.22884732 C-178.89691583 8.22859202 -185.09590218 8.23146135 -191.29491997 8.24202538 C-197.12334271 8.25168653 -202.95168779 8.25179917 -208.78011322 8.24450874 C-210.92110622 8.24346048 -213.062104 8.24584006 -215.20308876 8.2518692 C-218.12205179 8.25955781 -221.04074455 8.25496507 -223.95970154 8.24723816 C-225.23528471 8.2549535 -225.23528471 8.2549535 -226.53663725 8.26282471 C-230.8132671 8.23774795 -234.10000259 7.98437735 -238 6 C-234.62855652 4.31427826 -230.81021904 4.88909494 -227.10372925 4.91770935 C-225.70459107 4.92255304 -225.70459107 4.92255304 -224.27718747 4.92749459 C-221.13250499 4.93961738 -217.98790781 4.95898024 -214.84326172 4.97827148 C-212.59669177 4.98840922 -210.35011979 4.99810344 -208.10354614 5.00738525 C-201.98812916 5.03391683 -195.87275933 5.06668594 -189.75737906 5.10053515 C-183.3725407 5.13482823 -176.98767702 5.16344003 -170.60281372 5.19264221 C-159.88086132 5.2424514 -149.15893308 5.29578619 -138.43701172 5.35180664 C-127.39210057 5.40950505 -116.34718212 5.46509002 -105.30224609 5.51782227 C-104.28148178 5.52269684 -104.28148178 5.52269684 -103.24009596 5.5276699 C-99.82626915 5.54395928 -96.41244214 5.56020701 -92.99861503 5.57643402 C-64.66571 5.71116327 -36.33284528 5.85327665 -8 6 C-8 5.34 -8 4.68 -8 4 C-7.05125 3.71125 -6.1025 3.4225 -5.125 3.125 C-1.94788422 2.23174891 -1.94788422 2.23174891 0 0 Z " fill="#A2F4FB" transform="translate(263,399)"/>
<path d="M0 0 C0.90784963 -0.00226556 1.81569925 -0.00453111 2.75105947 -0.00686532 C5.7995829 -0.0132063 8.84806188 -0.0123759 11.89659119 -0.0115509 C14.07947853 -0.01454226 16.26236535 -0.01794474 18.44525146 -0.02172852 C24.37891392 -0.03057336 30.31256196 -0.03290679 36.24623036 -0.0335443 C41.1944384 -0.03449283 46.14264307 -0.03817035 51.09084982 -0.0417164 C63.42704026 -0.0503282 75.76322243 -0.05222919 88.09941541 -0.05146609 C98.15161238 -0.05108462 108.20377834 -0.05889051 118.25596619 -0.07209778 C129.92607845 -0.08737836 141.59616779 -0.0958573 153.26629061 -0.09513456 C159.44513197 -0.09487904 165.62393362 -0.09775999 171.8027668 -0.10831261 C177.60984324 -0.11795957 183.41684171 -0.11809626 189.22392082 -0.11079597 C191.35930367 -0.109746 193.49469129 -0.11213729 195.63006592 -0.11815643 C198.53659215 -0.12582099 201.4428453 -0.12126855 204.34936523 -0.11352539 C205.20168875 -0.11866895 206.05401227 -0.12381252 206.93216377 -0.12911195 C210.84315727 -0.10595876 212.7820437 -0.08571863 216.1111908 2.13371277 C214.9552882 2.13702291 213.7993856 2.14033306 212.60845566 2.14374352 C185.18040957 2.22273144 157.75241256 2.31194001 130.3244413 2.41376438 C126.9498099 2.42628351 123.57517818 2.43871625 120.20054626 2.45109558 C119.52870718 2.45356157 118.8568681 2.45602757 118.16467026 2.45856829 C107.2809888 2.49831086 96.39729693 2.53105156 85.51358518 2.56121258 C74.34901356 2.59230749 63.18448307 2.63105687 52.01995969 2.67650282 C45.74770634 2.70179088 39.4754844 2.72356536 33.20319366 2.73705673 C27.30338899 2.74985612 21.40369187 2.7718876 15.5039463 2.80109596 C13.33513614 2.81018836 11.16630864 2.81586582 8.99748039 2.81792641 C6.04289012 2.82123719 3.088607 2.83668261 0.13407898 2.85523987 C-1.16163902 2.85233777 -1.16163902 2.85233777 -2.48353314 2.84937704 C-3.27526134 2.85684253 -4.06698954 2.86430802 -4.8827095 2.87199974 C-5.90567607 2.87541722 -5.90567607 2.87541722 -6.94930863 2.87890375 C-9.24107928 3.17999355 -10.84114204 4.09353945 -12.8888092 5.13371277 C-15.1388092 4.75871277 -15.1388092 4.75871277 -16.8888092 4.13371277 C-11.55676089 -0.24618406 -6.71024314 -0.01222395 0 0 Z " fill="#A5F2F7" transform="translate(142.88880920410156,13.866287231445313)"/>
<path d="M0 0 C2.58871211 -0.29451924 4.938625 -0.39130853 7.52957153 -0.36076355 C8.70819789 -0.36460846 8.70819789 -0.36460846 9.91063488 -0.36853105 C12.55797868 -0.37349403 15.20475904 -0.35693502 17.85205078 -0.34057617 C19.74394721 -0.33973044 21.63584462 -0.34020398 23.52774048 -0.34190369 C28.67630375 -0.34276717 33.82465888 -0.32508434 38.97317362 -0.30418181 C44.3490383 -0.28547377 49.72490735 -0.28366922 55.10079956 -0.28010559 C65.28641135 -0.27076782 75.47192696 -0.24613065 85.65749633 -0.21605712 C97.25102082 -0.18256693 108.84454981 -0.16604066 120.43811059 -0.15097082 C144.29212713 -0.11958257 168.14605818 -0.06678849 192 0 C191.19319897 3.64972197 189.82076019 6.09495792 187.6875 9.1875 C187.09324219 10.06792969 186.49898437 10.94835938 185.88671875 11.85546875 C183.88733097 14.1280648 182.95283904 14.66756117 180 15 C182.27547309 10.44905382 185.17762299 6.23356551 188 2 C125.3 2.33 62.6 2.66 -2 3 C-1.34 2.01 -0.68 1.02 0 0 Z " fill="#A0F1F6" transform="translate(140,38)"/>
<path d="M0 0 C28.8673849 -0.04559854 57.73476556 -0.08100557 86.60217937 -0.10213066 C90.00814242 -0.10463215 93.41410541 -0.10722079 96.82006836 -0.10986328 C97.49815098 -0.1103879 98.1762336 -0.11091252 98.87486418 -0.11145304 C109.86271029 -0.12016209 120.85053552 -0.13593481 131.83836923 -0.15430559 C143.10799544 -0.17299075 154.37761121 -0.18396403 165.64725369 -0.18817699 C171.97930175 -0.19078994 178.31130243 -0.1969537 184.64333534 -0.21146011 C190.59809105 -0.22499222 196.55277967 -0.22923153 202.50754929 -0.22621536 C204.69775825 -0.22676749 206.88796935 -0.23077085 209.07816505 -0.23841095 C212.0593398 -0.24830379 215.04025841 -0.24598964 218.0214386 -0.24050903 C218.89594534 -0.24633472 219.77045208 -0.2521604 220.67145902 -0.25816262 C226.65763637 -0.22824242 226.65763637 -0.22824242 230 2 C229.67 2.66 229.34 3.32 229 4 C228.36279431 3.6757435 227.72558863 3.35148701 227.06907368 3.01740456 C222.95148999 1.65241667 219.2054002 1.71179577 214.89482117 1.7215271 C213.97583331 1.7157347 213.05684546 1.7099423 212.11000949 1.70397437 C209.02992848 1.68696592 205.94999723 1.68409711 202.86987305 1.68115234 C200.66226331 1.67185476 198.45465709 1.66168635 196.24705505 1.65071106 C190.25168205 1.62337791 184.25633259 1.60825178 178.26091361 1.59528303 C171.99616526 1.57966704 165.73146509 1.55287193 159.4667511 1.5272522 C148.95107558 1.48575832 138.43539339 1.45117161 127.91967773 1.421875 C117.08925484 1.3916827 106.2588583 1.35732932 95.4284668 1.31738281 C94.7606934 1.31492126 94.09292001 1.31245972 93.40491106 1.30992357 C90.05483202 1.29754884 86.70475329 1.28509233 83.3546747 1.27259517 C55.56981895 1.16923499 27.78493216 1.07998785 0 1 C0 0.67 0 0.34 0 0 Z " fill="#1CD8EC" transform="translate(134,16)"/>
<path d="M0 0 C0 1.33333333 0 2.66666667 0 4 C24.29539691 4.07004822 48.5907787 4.12296766 72.88625622 4.15543652 C84.16679953 4.17091236 95.44728014 4.19201564 106.7277832 4.22631836 C116.55865419 4.25619869 126.38947977 4.27556978 136.22039491 4.28226548 C141.42689116 4.28618005 146.63325749 4.2953948 151.83971214 4.31719017 C156.73898711 4.33753369 161.63807847 4.3438381 166.53739166 4.33932304 C168.33652811 4.3401492 170.13567063 4.34612753 171.93477058 4.35761642 C174.38990137 4.37252724 176.84433762 4.36895895 179.29948425 4.36076355 C180.36904894 4.37387134 180.36904894 4.37387134 181.46022099 4.38724393 C185.81152637 4.34794405 188.48443189 3.572962 192 1 C190.125 4.875 190.125 4.875 189 6 C186.52108029 6.09771507 184.07005223 6.12995957 181.59068298 6.12025452 C180.41333827 6.12153615 180.41333827 6.12153615 179.21220881 6.12284368 C176.56194141 6.12450087 173.91173625 6.11897324 171.26147461 6.11352539 C169.36972556 6.11324354 167.4779764 6.1134012 165.58622742 6.1139679 C160.4335489 6.11425597 155.28089345 6.10835765 150.12822032 6.10139394 C144.74967104 6.09516204 139.3711213 6.09455673 133.99256897 6.09336853 C123.79988176 6.09025473 113.60720521 6.08204069 103.41452271 6.07201904 C91.81375432 6.06085941 80.21298543 6.05534783 68.61221302 6.05032361 C44.74146942 6.03985811 20.87073531 6.02225773 -3 6 C-2.625 3.5625 -2.625 3.5625 -2 1 C-1.34 0.67 -0.68 0.34 0 0 Z " fill="#7AF6FE" transform="translate(59,377)"/>
<path d="M0 0 C0.66 0.66 1.32 1.32 2 2 C1.14728516 1.9690625 1.14728516 1.9690625 0.27734375 1.9375 C-3.4551555 2.03719948 -6.05838162 2.20510322 -8.98046875 4.671875 C-10.73293507 6.72995907 -12.37770748 8.83830543 -14 11 C-17.40230577 14.73423804 -20.36929834 16.95387601 -25 19 C-23.29268146 14.72116465 -20.21502704 11.69474128 -17.125 8.375 C-16.33029297 7.49714844 -16.33029297 7.49714844 -15.51953125 6.6015625 C-10.60394755 1.28346202 -7.52503186 -0.55740977 0 0 Z " fill="#56E8F6" transform="translate(171,81)"/>
<path d="M0 0 C0 3 0 3 -2.15673828 5.16308594 C-7.34451944 8.33785908 -13.63192069 7.48667728 -19.4921875 7.390625 C-20.79326447 7.38496521 -22.09434143 7.37930542 -23.43484497 7.37347412 C-26.87759681 7.35827244 -30.31966318 7.31903993 -33.762146 7.2746582 C-37.28144053 7.23358604 -40.80084688 7.21543779 -44.3203125 7.1953125 C-51.21382152 7.15253873 -58.10687776 7.08435522 -65 7 C-65 6.67 -65 6.34 -65 6 C-46.19 6 -27.38 6 -8 6 C-8 5.34 -8 4.68 -8 4 C-7.05125 3.71125 -6.1025 3.4225 -5.125 3.125 C-1.94788422 2.23174891 -1.94788422 2.23174891 0 0 Z " fill="#58E8F7" transform="translate(263,399)"/>
<path d="M0 0 C7.64080129 -0.04632731 15.28158803 -0.08187121 22.92249775 -0.10362434 C26.47043631 -0.11406444 30.01827883 -0.12822763 33.56616211 -0.15087891 C37.64437791 -0.17675331 41.72249271 -0.1864709 45.80078125 -0.1953125 C47.07585037 -0.20563507 48.35091949 -0.21595764 49.66462708 -0.22659302 C50.84562485 -0.22674408 52.02662262 -0.22689514 53.2434082 -0.22705078 C54.80560844 -0.23371262 54.80560844 -0.23371262 56.39936829 -0.24050903 C59 0 59 0 62 2 C61.67 2.66 61.34 3.32 61 4 C60.2927327 3.67657623 59.58546539 3.35315247 58.85676575 3.01992798 C55.81286184 1.93318758 53.5132697 1.72478469 50.29174805 1.68115234 C49.17096359 1.66128265 48.05017914 1.64141296 46.89543152 1.62094116 C45.0967437 1.60361435 45.0967437 1.60361435 43.26171875 1.5859375 C41.40786308 1.55688828 41.40786308 1.55688828 39.51655579 1.5272522 C36.24348033 1.47767445 32.970439 1.43637171 29.69720459 1.39910889 C26.35206543 1.35897981 23.00711627 1.30776548 19.66210938 1.2578125 C13.10818139 1.16183193 6.55417972 1.07676329 0 1 C0 0.67 0 0.34 0 0 Z " fill="#1CD8EC" transform="translate(302,16)"/>
<path d="M0 0 C0.33 0.66 0.66 1.32 1 2 C0.06553465 4.03144641 -0.93224776 6.03533587 -2 8 C-2.66 8 -3.32 8 -4 8 C-5.74448199 13.23344596 -5.67853621 18.87957435 -4 24.125 C-3.67 24.74375 -3.34 25.3625 -3 26 C-5.32758311 25.06896676 -6.74357132 24.34617872 -8.25 22.3125 C-9.66654205 17.94482868 -9.48016217 14.28043245 -7.875 10 C-5.58298466 6.33277545 -2.91237917 3.18570925 0 0 Z " fill="#6DE8F3" transform="translate(28,378)"/>
<path d="M0 0 C0.33 0 0.66 0 1 0 C1 1.65 1 3.3 1 5 C0.01 5.33 -0.98 5.66 -2 6 C-3.04222008 7.79625419 -3.04222008 7.79625419 -4 10 C-5.09165351 11.75040994 -6.21907521 13.47885134 -7.375 15.1875 C-7.96023438 16.06792969 -8.54546875 16.94835937 -9.1484375 17.85546875 C-11.12473359 20.14446992 -12.04987236 20.668598 -15 21 C-13.3514785 17.30412114 -11.0660195 14.27799579 -8.625 11.0625 C-7.85414063 10.04285156 -7.08328125 9.02320312 -6.2890625 7.97265625 C-1.89610199 2.26780481 -1.89610199 2.26780481 0 0 Z " fill="#5FE6F3" transform="translate(273,113)"/>
<path d="M0 0 C0 3.77910478 -0.99703962 4.46106101 -3.5 7.1875 C-4.1496875 7.90292969 -4.799375 8.61835938 -5.46875 9.35546875 C-5.9740625 9.89816406 -6.479375 10.44085938 -7 11 C-4.15324828 14.39458023 -1.32845827 17.74672619 1.875 20.8125 C4 23 4 23 4 25 C4.66 25 5.32 25 6 25 C6 25.66 6 26.32 6 27 C6.66 27 7.32 27 8 27 C7.67 27.66 7.34 28.32 7 29 C2.81621777 26.85157129 1.37726224 24.96210373 -1 21 C-3.10512876 18.93194787 -5.25464652 16.93333955 -7.453125 14.96484375 C-9 13 -9 13 -8.8125 10.91015625 C-6.73685766 6.03040095 -4.29460035 3.13389755 0 0 Z " fill="#A0F7FB" transform="translate(149,131)"/>
<path d="M0 0 C0 0.99 0 1.98 0 3 C-0.66 3.66 -1.32 4.32 -2 5 C-2.6425235 7.06874034 -2.6425235 7.06874034 -3 9 C-3.66 9 -4.32 9 -5 9 C-5 9.66 -5 10.32 -5 11 C-5.99 11.33 -6.98 11.66 -8 12 C-8.433125 13.11375 -8.433125 13.11375 -8.875 14.25 C-10.2977877 17.7279255 -12.16178933 19.567248 -15 22 C-17.3125 22.8125 -17.3125 22.8125 -19 23 C-17.31680558 18.76619809 -14.27757414 15.86827008 -11.1875 12.625 C-7.31007965 8.52231543 -3.57305581 4.37220507 0 0 Z " fill="#89F1F7" transform="translate(45,110)"/>
<path d="M0 0 C0 3.29223784 -0.50518132 5.08510357 -2 8 C-3.32467746 8.6837045 -4.65863633 9.34964186 -6 10 C-7.05771739 11.63064764 -8.05273046 13.30280873 -9 15 C-11.64770599 18.79504525 -13.54249362 20.63798416 -18 22 C-16.3130142 17.74088153 -13.23205575 14.8223007 -10.125 11.5625 C-6.58347566 7.81847975 -3.1585903 4.08175316 0 0 Z " fill="#81F0F8" transform="translate(123,21)"/>
<path d="M0 0 C0.33 1.32 0.66 2.64 1 4 C0.34 4 -0.32 4 -1 4 C-2.00259507 7.00778521 -2.30314642 9.53820647 -2.5625 12.6875 C-2.68818359 14.17830078 -2.68818359 14.17830078 -2.81640625 15.69921875 C-2.87699219 16.45847656 -2.93757813 17.21773437 -3 18 C-2.34 18 -1.68 18 -1 18 C-1.33 19.32 -1.66 20.64 -2 22 C-5.08272799 19.01360726 -6.32861615 16.7899684 -6.5 12.5625 C-6.26307685 7.09504272 -3.80291182 3.80291182 0 0 Z " fill="#62E7F2" transform="translate(25,133)"/>
<path d="M0 0 C0.61743164 1.80664062 0.61743164 1.80664062 1 4 C-0.43517355 6.36311321 -1.84171023 8.3653494 -3.5625 10.5 C-4.20928711 11.35271484 -4.20928711 11.35271484 -4.86914062 12.22265625 C-7.8559147 16.02560935 -10.85339171 18.51568843 -15 21 C-13.60917658 18.00708885 -11.97717635 15.49987528 -9.9609375 12.890625 C-9.38085938 12.13652344 -8.80078125 11.38242188 -8.203125 10.60546875 C-7.59984375 9.82816406 -6.9965625 9.05085938 -6.375 8.25 C-5.76398438 7.45722656 -5.15296875 6.66445312 -4.5234375 5.84765625 C-3.01861835 3.89609392 -1.51072716 1.94699011 0 0 Z " fill="#6DEAF5" transform="translate(289,92)"/>
<path d="M0 0 C0 3.78176921 -1.07555275 5.76967782 -3 9 C-4.33333333 9.66666667 -5.66666667 10.33333333 -7 11 C-8.76727858 14.0334467 -8.76727858 14.0334467 -10 17 C-10.66 17 -11.32 17 -12 17 C-12 17.66 -12 18.32 -12 19 C-13.98 19.99 -15.96 20.98 -18 22 C-16.37238997 18.0213977 -13.60077598 15.19690056 -10.6875 12.125 C-6.98418956 8.18487923 -3.42803816 4.18358027 0 0 Z " fill="#7FEFF7" transform="translate(66,86)"/>
<path d="M0 0 C0 4.3493073 -2.69568106 6.22265928 -5.5625 9.1875 C-6.66354713 10.3508184 -7.76380972 11.51487986 -8.86328125 12.6796875 C-9.66886475 13.52805176 -9.66886475 13.52805176 -10.49072266 14.39355469 C-13.42111052 17.51260226 -16.21366372 20.75254469 -19 24 C-19.33 23.01 -19.66 22.02 -20 21 C-19.236875 20.443125 -18.47375 19.88625 -17.6875 19.3125 C-15.00561031 17.00482748 -13.77387568 15.00787616 -12 12 C-10.66666667 11 -9.33333333 10 -8 9 C-7.525625 8.195625 -7.05125 7.39125 -6.5625 6.5625 C-4.77513651 3.63122388 -2.7547394 2.01021523 0 0 Z " fill="#80EEF5" transform="translate(93,91)"/>
<path d="M0 0 C4.875 2.75 4.875 2.75 6 5 C6.56549228 9.63518261 6.67674909 13.59939799 4 17.5625 C3.34 18.366875 2.68 19.17125 2 20 C1.67 18.68 1.34 17.36 1 16 C1.66 16 2.32 16 3 16 C2.88544319 14.08268082 2.75793742 12.1661325 2.625 10.25 C2.55539062 9.18265625 2.48578125 8.1153125 2.4140625 7.015625 C2.0271777 4.19793568 1.44313834 2.4169634 0 0 Z " fill="#58E7F3" transform="translate(361,271)"/>
<path d="M0 0 C0.33 1.32 0.66 2.64 1 4 C0.34 4 -0.32 4 -1 4 C-1.66 7.63 -2.32 11.26 -3 15 C-2.34 15 -1.68 15 -1 15 C-0.67 16.98 -0.34 18.96 0 21 C-3.875 18.375 -3.875 18.375 -5 15 C-5.34897334 9.59091325 -5.40316685 6.45029511 -2 2 C-1.34 1.34 -0.68 0.68 0 0 Z " fill="#6AE9F4" transform="translate(117,132)"/>
<path d="M0 0 C0 3.63129359 -0.79256772 4.38911405 -2.9921875 7.1953125 C-3.61480469 7.99324219 -4.23742187 8.79117188 -4.87890625 9.61328125 C-5.53761719 10.44214844 -6.19632812 11.27101563 -6.875 12.125 C-7.52597656 12.96160156 -8.17695313 13.79820313 -8.84765625 14.66015625 C-13.72183745 20.86091872 -13.72183745 20.86091872 -16 22 C-16 21.01 -16 20.02 -16 19 C-15.34 18.67 -14.68 18.34 -14 18 C-13.67 17.01 -13.34 16.02 -13 15 C-12.34 14.67 -11.68 14.34 -11 14 C-10.67 13.01 -10.34 12.02 -10 11 C-9.34 10.67 -8.68 10.34 -8 10 C-7.67 9.01 -7.34 8.02 -7 7 C-6.34 6.67 -5.68 6.34 -5 6 C-4.505 5.175 -4.01 4.35 -3.5 3.5 C-2 1 -2 1 0 0 Z " fill="#84EEF6" transform="translate(309,105)"/>
<path d="M0 0 C0 4.53850662 -2.5336296 7.3004444 -5 11 C-8.42362163 13.43257326 -9.67849437 14 -14 14 C-13 12 -13 12 -11.234375 11.1953125 C-8.23854048 9.59264578 -6.47584168 7.42817133 -4.25 4.875 C-3.45078125 3.96492188 -2.6515625 3.05484375 -1.828125 2.1171875 C-1.22484375 1.41851562 -0.6215625 0.71984375 0 0 Z " fill="#7CEEF6" transform="translate(229,300)"/>
<path d="M0 0 C0.99 0.33 1.98 0.66 3 1 C2.41992188 1.64066406 1.83984375 2.28132813 1.2421875 2.94140625 C-3.24094975 7.90540806 -7.67445028 12.89806956 -12 18 C-12 14.89448334 -11.4606285 13.64738916 -10 11 C-9.34 11 -8.68 11 -8 11 C-7.773125 10.4225 -7.54625 9.845 -7.3125 9.25 C-5.67490316 6.44269113 -3.52735142 5.00892036 -1 3 C-0.67 2.01 -0.34 1.02 0 0 Z " fill="#85EFF6" transform="translate(358,292)"/>
<path d="M0 0 C0.99 0.33 1.98 0.66 3 1 C2.41992188 1.64066406 1.83984375 2.28132813 1.2421875 2.94140625 C-3.24094975 7.90540806 -7.67445028 12.89806956 -12 18 C-12 14.08610218 -10.43156844 11.90944894 -8 9 C-6.21416953 7.38573403 -4.38873243 5.87175562 -2.48828125 4.39453125 C-0.72289858 2.96211074 -0.72289858 2.96211074 0 0 Z " fill="#88EFF7" transform="translate(340,312)"/>
<path d="M0 0 C0 0.99 0 1.98 0 3 C-5.07760661 7.68961674 -9.70805534 7.49727612 -16.375 7.25 C-17.76525391 7.22292969 -17.76525391 7.22292969 -19.18359375 7.1953125 C-21.45681435 7.14844197 -23.72785407 7.08285525 -26 7 C-26 6.67 -26 6.34 -26 6 C-20.06 6 -14.12 6 -8 6 C-8 5.34 -8 4.68 -8 4 C-7.05125 3.71125 -6.1025 3.4225 -5.125 3.125 C-1.94788422 2.23174891 -1.94788422 2.23174891 0 0 Z " fill="#76EEF8" transform="translate(263,399)"/>
<path d="M0 0 C0.33 0.99 0.66 1.98 1 3 C-0.3984375 5.19140625 -0.3984375 5.19140625 -2.375 7.5625 C-4.9474769 10.61242063 -4.9474769 10.61242063 -7 14 C-9.0625 14.625 -9.0625 14.625 -11 15 C-8.47692599 9.26574089 -4.57715245 4.23810412 0 0 Z " fill="#61E8F4" transform="translate(331,38)"/>
<path d="M0 0 C0.625 1.8125 0.625 1.8125 1 4 C0.01 5.485 0.01 5.485 -1 7 C-1.66 7 -2.32 7 -3 7 C-3.2475 7.804375 -3.495 8.60875 -3.75 9.4375 C-5 12 -5 12 -7.125 12.8125 C-7.74375 12.874375 -8.3625 12.93625 -9 13 C-7.50923566 9.7173068 -5.61379679 7.06922559 -3.375 4.25 C-2.74335938 3.45078125 -2.11171875 2.6515625 -1.4609375 1.828125 C-0.97882813 1.22484375 -0.49671875 0.6215625 0 0 Z " fill="#6BEAF4" transform="translate(319,53)"/>
<path d="M0 0 C0 4.87140024 -2.99424286 7.93836747 -6.25 11.375 C-6.8275 11.91125 -7.405 12.4475 -8 13 C-8.99 12.67 -9.98 12.34 -11 12 C-7.37 8.04 -3.74 4.08 0 0 Z " fill="#76EBF5" transform="translate(280,345)"/>
<path d="M0 0 C0 4.53850662 -2.5336296 7.3004444 -5 11 C-6.96752828 12.06246527 -8.96587579 13.07137808 -11 14 C-9.42219077 10.28954753 -7.09296752 7.70093616 -4.375 4.75 C-3.55773437 3.85796875 -2.74046875 2.9659375 -1.8984375 2.046875 C-1.27195312 1.37140625 -0.64546875 0.6959375 0 0 Z " fill="#7AECF6" transform="translate(129,118)"/>
<path d="M0 0 C1.32 0.66 2.64 1.32 4 2 C3.01 2.33 2.02 2.66 1 3 C0.690625 3.639375 0.38125 4.27875 0.0625 4.9375 C-1.2342338 7.45468915 -2.4221737 7.96886948 -5 9 C-4.5206753 4.68607774 -3.2542015 2.83430453 0 0 Z " fill="#58E6F3" transform="translate(115,270)"/>
<path d="M0 0 C2.4375 0.8125 2.4375 0.8125 5 2 C5.33 2.99 5.66 3.98 6 5 C6.99 5.33 7.98 5.66 9 6 C10.37195574 7.29355827 11.71182656 8.62298702 13 10 C12.67 10.66 12.34 11.32 12 12 C7.11707783 8.74471855 3.52426883 5.69902511 0 1 C0 0.67 0 0.34 0 0 Z " fill="#60E7F2" transform="translate(153,189)"/>
<path d="M0 0 C0.66 0 1.32 0 2 0 C1.67 2.31 1.34 4.62 1 7 C0.34 7 -0.32 7 -1 7 C-1 7.66 -1 8.32 -1 9 C-3.2727675 10.49524178 -5.5679943 11.78399715 -8 13 C-6.29763764 9.24819169 -3.99747453 6.60488836 -1.2421875 3.5859375 C0.20554064 2.07333091 0.20554064 2.07333091 0 0 Z " fill="#80EFF7" transform="translate(337,279)"/>
<path d="M0 0 C0.33 0.99 0.66 1.98 1 3 C-2.12621626 6.39417765 -4.56541027 8.6062718 -9 10 C-7.61811547 6.78956118 -6.07578097 4.95063635 -3.375 2.75 C-2.74335937 2.22921875 -2.11171875 1.7084375 -1.4609375 1.171875 C-0.73777344 0.59179688 -0.73777344 0.59179688 0 0 Z " fill="#5FE7F3" transform="translate(35,123)"/>
<path d="M0 0 C3.27075883 -0.0580476 6.54138524 -0.09361165 9.8125 -0.125 C10.74126953 -0.14175781 11.67003906 -0.15851562 12.62695312 -0.17578125 C13.51962891 -0.18222656 14.41230469 -0.18867188 15.33203125 -0.1953125 C16.15421143 -0.20578613 16.9763916 -0.21625977 17.82348633 -0.22705078 C20 0 20 0 23 2 C22.67 2.66 22.34 3.32 22 4 C21.03513672 3.52433594 21.03513672 3.52433594 20.05078125 3.0390625 C16.07694321 1.68561702 12.35798921 1.54279839 8.1875 1.375 C7.00510742 1.31699219 7.00510742 1.31699219 5.79882812 1.2578125 C3.8662462 1.16411156 1.93315624 1.08099221 0 1 C0 0.67 0 0.34 0 0 Z " fill="#43E2F0" transform="translate(341,16)"/>
<path d="M0 0 C0.99 0.33 1.98 0.66 3 1 C1.56665422 2.62866544 0.12817021 4.25280994 -1.3125 5.875 C-2.51326172 7.23238281 -2.51326172 7.23238281 -3.73828125 8.6171875 C-6 11 -6 11 -9 13 C-8.44514063 9.431946 -7.33214619 8.11384185 -4.5 5.9375 C-1.83347234 3.8774981 -1.10366566 3.31099698 0 0 Z " fill="#80EDF5" transform="translate(250,310)"/>
<path d="M0 0 C3.7952131 1.49097658 5.61042731 3.75700849 8 7 C5.25 11.875 5.25 11.875 3 13 C3 12.01 3 11.02 3 10 C3.66 10 4.32 10 5 10 C3.84414715 6.08788267 2.64465038 3.1254959 0 0 Z " fill="#91F0F6" transform="translate(125,279)"/>
<path d="M0 0 C1 2 1 2 0.4375 4.4375 C-1.44098755 7.78610824 -3.51621754 8.56104638 -7 10 C-5.33248852 6.05860922 -2.77289351 3.2107188 0 0 Z " fill="#72ECF6" transform="translate(44,358)"/>
<path d="M0 0 C0.66 0.66 1.32 1.32 2 2 C1.11248047 2.09087891 1.11248047 2.09087891 0.20703125 2.18359375 C-3.90978208 2.62012371 -7.95544533 3.08671346 -12 4 C-8.12207036 -0.05419917 -5.66296543 -0.30337315 0 0 Z " fill="#82EEF6" transform="translate(171,81)"/>
<path d="M0 0 C0 3.63053243 -1.2278255 4.95750337 -3.5546875 7.63671875 C-5.49136818 9.46347972 -7.46012234 10.27432067 -10 11 C-8.55218207 7.55571735 -6.72305391 5.63869038 -3.875 3.25 C-3.15054688 2.63640625 -2.42609375 2.0228125 -1.6796875 1.390625 C-0.84824219 0.70226563 -0.84824219 0.70226563 0 0 Z " fill="#5CE5F2" transform="translate(115,32)"/>
<path d="M0 0 C0 3 0 3 -1 5 C-1.66 5 -2.32 5 -3 5 C-3 5.66 -3 6.32 -3 7 C-4.98 7.99 -6.96 8.98 -9 10 C-7.61811547 6.78956118 -6.07578097 4.95063635 -3.375 2.75 C-2.74335937 2.22921875 -2.11171875 1.7084375 -1.4609375 1.171875 C-0.73777344 0.59179688 -0.73777344 0.59179688 0 0 Z " fill="#68E9F4" transform="translate(57,98)"/>
<path d="M0 0 C2 1 4 2 6 3 C6 3.66 6 4.32 6 5 C6.66 5 7.32 5 8 5 C8.66 6.32 9.32 7.64 10 9 C8.68 8.67 7.36 8.34 6 8 C6 7.34 6 6.68 6 6 C5.01 5.67 4.02 5.34 3 5 C3 4.34 3 3.68 3 3 C2.34 3 1.68 3 1 3 C0.67 2.01 0.34 1.02 0 0 Z " fill="#71E9F3" transform="translate(173,83)"/>
<path d="M0 0 C0.33 0.66 0.66 1.32 1 2 C-0.37393005 5.66381347 -1.1447677 7.56243929 -4.6875 9.375 C-5.450625 9.58125 -6.21375 9.7875 -7 10 C-5.33248852 6.05860922 -2.77289351 3.2107188 0 0 Z " fill="#7AEEF6" transform="translate(28,378)"/>
<path d="M0 0 C0.33 0.66 0.66 1.32 1 2 C-0.37393005 5.66381347 -1.1447677 7.56243929 -4.6875 9.375 C-5.450625 9.58125 -6.21375 9.7875 -7 10 C-5.33248852 6.05860922 -2.77289351 3.2107188 0 0 Z " fill="#7AEEF6" transform="translate(36,368)"/>
<path d="M0 0 C0.33 0.99 0.66 1.98 1 3 C-2.3 5.97 -5.6 8.94 -9 12 C-9 9 -9 9 -7.03125 6.73828125 C-5.77828125 5.53751953 -5.77828125 5.53751953 -4.5 4.3125 C-3.6646875 3.50425781 -2.829375 2.69601562 -1.96875 1.86328125 C-1.3190625 1.24839844 -0.669375 0.63351562 0 0 Z " fill="#9EF6FB" transform="translate(263,364)"/>
<path d="M0 0 C0 3.7794561 -1.04679411 5.79116175 -3 9 C-5.1875 9.875 -5.1875 9.875 -7 10 C-5.33248852 6.05860922 -2.77289351 3.2107188 0 0 Z " fill="#7DEEF5" transform="translate(57,342)"/>
<path d="M0 0 C0 3 0 3 -1.75 5.04296875 C-2.4925 5.75066406 -3.235 6.45835937 -4 7.1875 C-4.7425 7.90292969 -5.485 8.61835938 -6.25 9.35546875 C-6.8275 9.89816406 -7.405 10.44085938 -8 11 C-8.33 10.01 -8.66 9.02 -9 8 C-6.03 5.36 -3.06 2.72 0 0 Z " fill="#81EEF6" transform="translate(268,292)"/>
<path d="M0 0 C0.33 1.32 0.66 2.64 1 4 C-1.64 5.98 -4.28 7.96 -7 10 C-4.98127747 5.96255494 -2.91899872 3.37989325 0 0 Z " fill="#7DEEF6" transform="translate(105,282)"/>
<path d="M0 0 C0.99 0.33 1.98 0.66 3 1 C0.03 4.3 -2.94 7.6 -6 11 C-6.33 10.01 -6.66 9.02 -7 8 C-5.47005208 6.79557292 -3.94010417 5.59114583 -2.41015625 4.38671875 C-0.72844923 2.94316909 -0.72844923 2.94316909 0 0 Z " fill="#83EEF5" transform="translate(66,120)"/>
<path d="M0 0 C0.99 0.33 1.98 0.66 3 1 C0.03 4.3 -2.94 7.6 -6 11 C-6.33 10.01 -6.66 9.02 -7 8 C-5.47005208 6.79557292 -3.94010417 5.59114583 -2.41015625 4.38671875 C-0.72844923 2.94316909 -0.72844923 2.94316909 0 0 Z " fill="#81EEF5" transform="translate(108,72)"/>
<path d="M0 0 C0.99 0.33 1.98 0.66 3 1 C0.36 3.97 -2.28 6.94 -5 10 C-5 7 -5 7 -4 4 C-3.34 4 -2.68 4 -2 4 C-1.34 2.68 -0.68 1.36 0 0 Z " fill="#7DECF5" transform="translate(314,341)"/>
<path d="M0 0 C0 3 0 3 -1.53125 4.82421875 C-2.1809375 5.43910156 -2.830625 6.05398438 -3.5 6.6875 C-4.1496875 7.31011719 -4.799375 7.93273437 -5.46875 8.57421875 C-5.9740625 9.04472656 -6.479375 9.51523437 -7 10 C-7.66 9.67 -8.32 9.34 -9 9 C-6.31941902 5.42589203 -3.57410797 2.68058098 0 0 Z " fill="#8FF0F7" transform="translate(232,332)"/>
<path d="M0 0 C3.37503669 1.1858237 5.64722731 2.27573689 8 5 C7.67 5.99 7.34 6.98 7 8 C3.75700849 5.61042731 1.49097658 3.7952131 0 0 Z " fill="#5AE7F2" transform="translate(229,171)"/>
<path d="M0 0 C4.20626034 1.50223584 5.73900021 4.28550034 8 8 C5.6875 7.8125 5.6875 7.8125 3 7 C0 2.96551724 0 2.96551724 0 0 Z " fill="#63E7F2" transform="translate(239,148)"/>
<path d="M0 0 C0.33 0 0.66 0 1 0 C1 1.65 1 3.3 1 5 C-1.31 6.32 -3.62 7.64 -6 9 C-4.47300326 5.56425733 -2.44973747 2.84485642 0 0 Z " fill="#7AEEF7" transform="translate(273,113)"/>
<path d="M0 0 C0.33 0.66 0.66 1.32 1 2 C-0.1875 5.0625 -0.1875 5.0625 -2 8 C-4.1875 8.875 -4.1875 8.875 -6 9 C-4.47291037 5.56404834 -2.40072955 2.88087546 0 0 Z " fill="#7DEDF6" transform="translate(306,70)"/>
<path d="M0 0 C0.99 0 1.98 0 3 0 C1.44499019 3.81684226 -1.03595495 6.19195732 -4 9 C-4 8.01 -4 7.02 -4 6 C-3.34 6 -2.68 6 -2 6 C-2 5.01 -2 4.02 -2 3 C-1.34 3 -0.68 3 0 3 C0 2.01 0 1.02 0 0 Z " fill="#76EBF4" transform="translate(290,127)"/>
<path d="M0 0 C0 3 0 3 -1.53125 4.82421875 C-2.1809375 5.43910156 -2.830625 6.05398437 -3.5 6.6875 C-4.1496875 7.31011719 -4.799375 7.93273437 -5.46875 8.57421875 C-5.9740625 9.04472656 -6.479375 9.51523438 -7 10 C-7.33 9.01 -7.66 8.02 -8 7 C-5.36 4.69 -2.72 2.38 0 0 Z " fill="#86EFF6" transform="translate(163,115)"/>
<path d="M0 0 C0.33 0.99 0.66 1.98 1 3 C-1.64 5.31 -4.28 7.62 -7 10 C-7 7 -7 7 -5.46875 5.17578125 C-4.8190625 4.56089844 -4.169375 3.94601562 -3.5 3.3125 C-2.8503125 2.68988281 -2.200625 2.06726563 -1.53125 1.42578125 C-0.77328125 0.72001953 -0.77328125 0.72001953 0 0 Z " fill="#90F2F8" transform="translate(301,322)"/>
<path d="M0 0 C0.625 1.8125 0.625 1.8125 1 4 C-1 7 -1 7 -3.125 7.6875 C-3.74375 7.790625 -4.3625 7.89375 -5 8 C-3.62845496 5.04590299 -2.01136276 2.55991624 0 0 Z " fill="#75ECF6" transform="translate(299,79)"/>
<path d="M0 0 C1.98 0.66 3.96 1.32 6 2 C6.33 3.65 6.66 5.3 7 7 C1.125 3.375 1.125 3.375 0 0 Z " fill="#66E8F2" transform="translate(24,155)"/>
<path d="M0 0 C0 3 0 3 -2.375 5.6875 C-5 8 -5 8 -7 8 C-5.50902342 4.2047869 -3.24299151 2.38957269 0 0 Z " fill="#7DECF4" transform="translate(149,131)"/>
<path d="M0 0 C0 3 0 3 -1.53125 4.60546875 C-2.1809375 5.12753906 -2.830625 5.64960937 -3.5 6.1875 C-4.1496875 6.71730469 -4.799375 7.24710937 -5.46875 7.79296875 C-5.9740625 8.19128906 -6.479375 8.58960937 -7 9 C-6.19095897 4.20719998 -3.74015409 2.86479887 0 0 Z " fill="#83EFF6" transform="translate(122,58)"/>
<path d="M0 0 C0 0.99 0 1.98 0 3 C1.43750191 4.68798827 1.43750191 4.68798827 3 6 C1.02 6 -0.96 6 -3 6 C-2.625 3.5625 -2.625 3.5625 -2 1 C-1.34 0.67 -0.68 0.34 0 0 Z " fill="#82F3FA" transform="translate(59,377)"/>
<path d="M0 0 C1.32 0 2.64 0 4 0 C4 0.66 4 1.32 4 2 C4.66 2 5.32 2 6 2 C5.67 3.32 5.34 4.64 5 6 C3.35 4.02 1.7 2.04 0 0 Z " fill="#6EE9F3" transform="translate(225,262)"/>
<path d="M0 0 C0 3 0 3 -1.3125 4.38671875 C-2.875 5.59114583 -4.4375 6.79557292 -6 8 C-5.65120368 4.74456771 -4.97866739 3.98126893 -2.4375 1.75 C-1.633125 1.1725 -0.82875 0.595 0 0 Z " fill="#83EEF6" transform="translate(137,41)"/>
<path d="M0 0 C0.99 0 1.98 0 3 0 C1.73058503 3.91402949 0.48832306 5.79072873 -3 8 C-3 7.01 -3 6.02 -3 5 C-2.34 4.67 -1.68 4.34 -1 4 C-0.34786708 1.97536745 -0.34786708 1.97536745 0 0 Z " fill="#7FEFF6" transform="translate(362,33)"/>
</svg>
